<svg xmlns="http://www.w3.org/2000/svg" width="1280" height="700" viewBox="0 0 1280 700"><rect width="100%" height="100%" fill="#DDDDDD"/><path fill="#999999" d="M278.135 338.865v34.04q3.11 3.77 6.78 5.32 3.66 1.56 7.95 1.56 4.14 0 7.48-1.56 3.33-1.55 5.66-4.73t3.59-8.03q1.25-4.85 1.25-11.43 0-6.66-1.07-11.29-1.07-4.62-3.07-7.51t-4.85-4.22-6.47-1.33q-5.7 0-9.7 2.41-3.99 2.4-7.55 6.77m-2.44-18.87 1.48 7.03q4.67-5.26 10.58-8.51 5.93-3.26 13.92-3.26 6.21 0 11.36 2.59 5.14 2.59 8.88 7.51 3.73 4.92 5.77 12.14 2.03 7.21 2.03 16.54 0 8.51-2.29 15.76-2.3 7.25-6.55 12.58-4.26 5.33-10.29 8.32-6.03 3-13.5 3-6.36 0-10.88-1.96-4.51-1.96-8.07-5.44v31.08h-18.27v-100.71h11.17q3.55 0 4.66 3.33m68.45-37.37h18.28v109.96h-18.28zm76.67 90.35v-12.8q-7.92.37-13.32 1.37t-8.66 2.55-4.66 3.63q-1.41 2.07-1.41 4.51 0 4.81 2.85 6.88t7.44 2.07q5.62 0 9.73-2.03 4.11-2.04 8.03-6.18m-38.63-39.89-3.26-5.84q13.1-11.99 31.53-11.99 6.66 0 11.91 2.18 5.26 2.19 8.88 6.07 3.63 3.89 5.51 9.29 1.89 5.4 1.89 11.84v47.95h-8.29q-2.59 0-3.99-.78-1.41-.77-2.22-3.14l-1.63-5.48q-2.89 2.59-5.62 4.55-2.74 1.96-5.7 3.3-2.96 1.33-6.33 2.03t-7.44.7q-4.81 0-8.88-1.29-4.07-1.3-7.03-3.89t-4.58-6.43q-1.63-3.85-1.63-8.96 0-2.88.96-5.73t3.14-5.44q2.19-2.59 5.67-4.89 3.47-2.29 8.54-3.99t11.81-2.78q6.73-1.07 15.39-1.29v-4.44q0-7.62-3.26-11.29-3.25-3.66-9.4-3.66-4.44 0-7.36 1.04-2.92 1.03-5.14 2.33-2.22 1.29-4.04 2.33-1.81 1.03-4.03 1.03-1.92 0-3.25-.99-1.34-1-2.15-2.34m132.83-7.03-4.81 6.66q-.81 1.04-1.59 1.63t-2.26.59q-1.4 0-2.74-.85-1.33-.85-3.18-1.92t-4.4-1.92q-2.55-.86-6.33-.86-4.81 0-8.43 1.74-3.63 1.74-6.04 5-2.4 3.25-3.58 7.88-1.19 4.62-1.19 10.47 0 6.07 1.3 10.8 1.29 4.74 3.73 7.96 2.45 3.22 5.92 4.88 3.48 1.67 7.85 1.67 4.36 0 7.06-1.08 2.71-1.07 4.56-2.36 1.85-1.3 3.21-2.37 1.37-1.07 3.08-1.07 2.22 0 3.33 1.7l5.25 6.66q-3.03 3.55-6.59 5.96-3.55 2.4-7.36 3.84-3.81 1.45-7.84 2.04-4.04.59-8.03.59-7.03 0-13.25-2.63-6.21-2.62-10.88-7.66-4.66-5.03-7.36-12.32t-2.7-16.61q0-8.36 2.4-15.5 2.41-7.14 7.07-12.36t11.55-8.18q6.88-2.96 15.83-2.96 8.51 0 14.91 2.74t11.51 7.84m26.57 19.84h34.48q0-3.56-1-6.7-1-3.15-3-5.51-1.99-2.37-5.07-3.74-3.07-1.37-7.14-1.37-7.91 0-12.47 4.51-4.55 4.52-5.8 12.81m46.62 11.02h-46.99q.44 5.85 2.07 10.1 1.63 4.26 4.29 7.03 2.66 2.78 6.33 4.15 3.66 1.37 8.1 1.37t7.66-1.04 5.62-2.29q2.41-1.26 4.22-2.3 1.81-1.03 3.52-1.03 2.29 0 3.4 1.7l5.25 6.66q-3.03 3.55-6.8 5.96-3.78 2.4-7.89 3.84-4.1 1.45-8.36 2.04-4.25.59-8.25.59-7.92 0-14.72-2.63-6.81-2.62-11.84-7.77-5.04-5.14-7.92-12.73-2.89-7.58-2.89-17.57 0-7.77 2.52-14.61 2.51-6.85 7.21-11.92t11.47-8.03 15.28-2.96q7.18 0 13.25 2.3 6.07 2.29 10.43 6.69 4.37 4.41 6.85 10.81t2.48 14.61q0 4.15-.89 5.59t-3.4 1.44m36.26-74.29v42.18q4.44-4.15 9.76-6.74 5.33-2.59 12.51-2.59 6.22 0 11.03 2.11t8.02 5.92q3.22 3.81 4.89 9.1 1.66 5.29 1.66 11.66v48.32h-18.27v-48.32q0-6.96-3.19-10.77-3.18-3.81-9.69-3.81-4.74 0-8.88 2.15-4.14 2.14-7.84 5.84v54.91h-18.28v-109.96zm98.79 32.85q8.43 0 15.35 2.74t11.84 7.77 7.59 12.28q2.66 7.26 2.66 16.21 0 9.03-2.66 16.28-2.67 7.25-7.59 12.36-4.92 5.1-11.84 7.84t-15.35 2.74q-8.51 0-15.47-2.74t-11.88-7.84q-4.92-5.11-7.62-12.36t-2.7-16.28q0-8.95 2.7-16.21 2.7-7.25 7.62-12.28t11.88-7.77 15.47-2.74m0 64.16q9.47 0 14.02-6.36 4.55-6.37 4.55-18.65 0-12.29-4.55-18.72-4.55-6.44-14.02-6.44-9.62 0-14.25 6.47-4.62 6.48-4.62 18.69t4.62 18.61q4.63 6.4 14.25 6.4m51.65-97.01h18.28v109.96h-18.28zm84.21 87.46v-34.04q-3.11-3.77-6.77-5.32-3.66-1.56-7.88-1.56-4.15 0-7.48 1.56-3.33 1.55-5.69 4.7-2.37 3.14-3.63 7.99-1.26 4.84-1.26 11.43 0 6.66 1.07 11.29 1.08 4.62 3.08 7.54 1.99 2.93 4.88 4.22 2.89 1.3 6.44 1.3 5.7 0 9.69-2.37 4-2.37 7.55-6.74m0-87.46h18.28v109.96h-11.18q-3.62 0-4.58-3.33l-1.56-7.33q-4.59 5.26-10.54 8.51-5.96 3.26-13.88 3.26-6.21 0-11.39-2.59t-8.92-7.51-5.77-12.17q-2.04-7.26-2.04-16.58 0-8.44 2.3-15.69 2.29-7.25 6.58-12.58t10.29-8.32q5.99-3 13.47-3 6.36 0 10.87 2 4.52 2 8.07 5.4zm50.76 63.27h34.49q0-3.56-1-6.7-1-3.15-3-5.51-2-2.37-5.07-3.74t-7.14-1.37q-7.92 0-12.47 4.51-4.55 4.52-5.81 12.81m46.62 11.02h-46.99q.45 5.85 2.08 10.1 1.62 4.26 4.29 7.03 2.66 2.78 6.32 4.15 3.67 1.37 8.11 1.37t7.66-1.04 5.62-2.29q2.41-1.26 4.22-2.3 1.81-1.03 3.51-1.03 2.3 0 3.41 1.7l5.25 6.66q-3.03 3.55-6.81 5.96-3.77 2.4-7.88 3.84-4.1 1.45-8.36 2.04-4.25.59-8.25.59-7.92 0-14.73-2.63-6.81-2.62-11.84-7.77-5.03-5.14-7.92-12.73-2.88-7.58-2.88-17.57 0-7.77 2.51-14.61 2.52-6.85 7.22-11.92t11.47-8.03 15.28-2.96q7.18 0 13.25 2.3 6.07 2.29 10.43 6.69 4.37 4.41 6.85 10.81t2.48 14.61q0 4.15-.89 5.59t-3.41 1.44m34.12-35.67 1.11 8.59q3.55-6.81 8.43-10.69 4.89-3.89 11.55-3.89 5.25 0 8.43 2.29l-1.18 13.69q-.37 1.34-1.07 1.89-.71.56-1.89.56-1.11 0-3.29-.37-2.19-.37-4.26-.37-3.03 0-5.4.88-2.37.89-4.26 2.56-1.88 1.66-3.33 4.03-1.44 2.37-2.7 5.4v46.77h-18.27v-75.92h10.72q2.82 0 3.93 1 1.11.99 1.48 3.58"/></svg>